<?xml version="1.0" encoding="UTF-8" standalone="no"?>
<!DOCTYPE svg PUBLIC "-//W3C//DTD SVG 1.1//EN"
 "http://www.w3.org/Graphics/SVG/1.1/DTD/svg11.dtd">
<!-- Generated by graphviz version 2.40.1 (20161225.0304)
 -->
<!-- Title: G Pages: 1 -->
<svg width="254pt" height="539pt"
 viewBox="0.00 0.00 253.79 539.00" xmlns="http://www.w3.org/2000/svg" xmlns:xlink="http://www.w3.org/1999/xlink">
<g id="graph0" class="graph" transform="scale(1 1) rotate(0) translate(4 535)">
<title>G</title>
<polygon fill="#ffffff" stroke="transparent" points="-4,4 -4,-535 249.7865,-535 249.7865,4 -4,4"/>
<!-- A0 -->
<g id="node1" class="node">
<title>A0</title>
<ellipse fill="none" stroke="#000000" cx="56.221" cy="-520" rx="11" ry="11"/>
</g>
<!-- A1 -->
<g id="node2" class="node">
<title>A1</title>
<path fill="none" stroke="#000000" d="M88.1722,-472C88.1722,-472 24.2698,-472 24.2698,-472 18.2698,-472 12.2698,-466 12.2698,-460 12.2698,-460 12.2698,-448 12.2698,-448 12.2698,-442 18.2698,-436 24.2698,-436 24.2698,-436 88.1722,-436 88.1722,-436 94.1722,-436 100.1722,-442 100.1722,-448 100.1722,-448 100.1722,-460 100.1722,-460 100.1722,-466 94.1722,-472 88.1722,-472"/>
<text text-anchor="end" x="85.946" y="-457" font-family="Helvetica,sans-Serif" font-size="10.00" fill="#000000">Parse .YUML</text>
<text text-anchor="middle" x="56.221" y="-445" font-family="Helvetica,sans-Serif" font-size="10.00" fill="#000000">file</text>
</g>
<!-- A0&#45;&gt;A1 -->
<g id="edge1" class="edge">
<title>A0&#45;&gt;A1</title>
<path fill="none" stroke="#000000" d="M56.221,-508.804C56.221,-501.5358 56.221,-491.7135 56.221,-482.3916"/>
<polygon fill="#000000" stroke="#000000" points="56.221,-472.2423 60.7211,-482.2423 56.221,-477.2423 56.2211,-482.2423 56.2211,-482.2423 56.2211,-482.2423 56.221,-477.2423 51.7211,-482.2424 56.221,-472.2423 56.221,-472.2423"/>
</g>
<!-- A2 -->
<g id="node3" class="node">
<title>A2</title>
<path fill="none" stroke="#000000" d="M86.3906,-399C86.3906,-399 26.0514,-399 26.0514,-399 20.0514,-399 14.0514,-393 14.0514,-387 14.0514,-387 14.0514,-375 14.0514,-375 14.0514,-369 20.0514,-363 26.0514,-363 26.0514,-363 86.3906,-363 86.3906,-363 92.3906,-363 98.3906,-369 98.3906,-375 98.3906,-375 98.3906,-387 98.3906,-387 98.3906,-393 92.3906,-399 86.3906,-399"/>
<text text-anchor="end" x="84.5555" y="-384" font-family="Helvetica,sans-Serif" font-size="10.00" fill="#000000">Create .DOT</text>
<text text-anchor="middle" x="56.221" y="-372" font-family="Helvetica,sans-Serif" font-size="10.00" fill="#000000">document</text>
</g>
<!-- A1&#45;&gt;A2 -->
<g id="edge2" class="edge">
<title>A1&#45;&gt;A2</title>
<path fill="none" stroke="#000000" d="M56.221,-435.9551C56.221,-427.8828 56.221,-418.1764 56.221,-409.1817"/>
<polygon fill="#000000" stroke="#000000" points="56.221,-399.0904 60.7211,-409.0903 56.221,-404.0904 56.2211,-409.0904 56.2211,-409.0904 56.2211,-409.0904 56.221,-404.0904 51.7211,-409.0904 56.221,-399.0904 56.221,-399.0904"/>
</g>
<!-- A3 -->
<g id="node4" class="node">
<title>A3</title>
<path fill="none" stroke="#000000" d="M90.7999,-326C90.7999,-326 21.6421,-326 21.6421,-326 15.6421,-326 9.6421,-320 9.6421,-314 9.6421,-314 9.6421,-302 9.6421,-302 9.6421,-296 15.6421,-290 21.6421,-290 21.6421,-290 90.7999,-290 90.7999,-290 96.7999,-290 102.7999,-296 102.7999,-302 102.7999,-302 102.7999,-314 102.7999,-314 102.7999,-320 96.7999,-326 90.7999,-326"/>
<text text-anchor="middle" x="56.221" y="-305" font-family="Helvetica,sans-Serif" font-size="10.00" fill="#000000">Generate SVG</text>
</g>
<!-- A2&#45;&gt;A3 -->
<g id="edge3" class="edge">
<title>A2&#45;&gt;A3</title>
<path fill="none" stroke="#000000" d="M56.221,-362.9551C56.221,-354.8828 56.221,-345.1764 56.221,-336.1817"/>
<polygon fill="#000000" stroke="#000000" points="56.221,-326.0904 60.7211,-336.0903 56.221,-331.0904 56.2211,-336.0904 56.2211,-336.0904 56.2211,-336.0904 56.221,-331.0904 51.7211,-336.0904 56.221,-326.0904 56.221,-326.0904"/>
</g>
<!-- A4 -->
<g id="node5" class="node">
<title>A4</title>
<path fill="none" stroke="#000000" d="M60.6644,-199C60.6644,-199 11.7776,-199 11.7776,-199 5.7776,-199 -.2224,-193 -.2224,-187 -.2224,-187 -.2224,-175 -.2224,-175 -.2224,-169 5.7776,-163 11.7776,-163 11.7776,-163 60.6644,-163 60.6644,-163 66.6644,-163 72.6644,-169 72.6644,-175 72.6644,-175 72.6644,-187 72.6644,-187 72.6644,-193 66.6644,-199 60.6644,-199"/>
<text text-anchor="end" x="58.442" y="-184" font-family="Helvetica,sans-Serif" font-size="10.00" fill="#000000">Output to</text>
<text text-anchor="middle" x="36.221" y="-172" font-family="Helvetica,sans-Serif" font-size="10.00" fill="#000000">Previewer</text>
</g>
<!-- A3&#45;&gt;A4 -->
<g id="edge4" class="edge">
<title>A3&#45;&gt;A4</title>
<path fill="none" stroke="#000000" d="M53.3555,-289.804C50.0436,-268.7735 44.5532,-233.9094 40.6814,-209.3236"/>
<polygon fill="#000000" stroke="#000000" points="39.0812,-199.1622 45.0821,-208.3404 39.8591,-204.1014 40.6369,-209.0405 40.6369,-209.0405 40.6369,-209.0405 39.8591,-204.1014 36.1917,-209.7406 39.0812,-199.1622 39.0812,-199.1622"/>
</g>
<!-- A6 -->
<g id="node7" class="node">
<title>A6</title>
<polygon fill="none" stroke="#000000" points="87.221,-253 69.221,-235 87.221,-217 105.221,-235 87.221,-253"/>
</g>
<!-- A3&#45;&gt;A6 -->
<g id="edge6" class="edge">
<title>A3&#45;&gt;A6</title>
<path fill="none" stroke="#000000" d="M63.8839,-289.9551C68.0688,-280.1003 73.288,-267.8099 77.7289,-257.3524"/>
<polygon fill="#000000" stroke="#000000" points="81.6889,-248.0273 81.9221,-258.9907 79.7345,-252.6295 77.7801,-257.2317 77.7801,-257.2317 77.7801,-257.2317 79.7345,-252.6295 73.6381,-255.4728 81.6889,-248.0273 81.6889,-248.0273"/>
</g>
<!-- A5 -->
<g id="node6" class="node">
<title>A5</title>
<polygon fill="#d3d3d3" stroke="#000000" stroke-width="4" points="70.221,-67.5 70.221,-71.5 106.221,-71.5 106.221,-67.5 70.221,-67.5"/>
<text text-anchor="middle" x="75.86" y="-69.2" font-family="Helvetica,sans-Serif" font-size="1.00" fill="#000000"> </text>
<polyline fill="none" stroke="#000000" stroke-width="4" points="81.4989,-67.5 81.4989,-71.5 "/>
<text text-anchor="middle" x="87.6379" y="-69.2" font-family="Helvetica,sans-Serif" font-size="1.00" fill="#000000"> </text>
<polyline fill="none" stroke="#000000" stroke-width="4" points="93.7768,-67.5 93.7768,-71.5 "/>
<text text-anchor="middle" x="99.9158" y="-69.2" font-family="Helvetica,sans-Serif" font-size="1.00" fill="#000000"> </text>
</g>
<!-- A4&#45;&gt;A5 -->
<g id="edge5" class="edge">
<title>A4&#45;&gt;A5:n</title>
<path fill="none" stroke="#000000" d="M43.7447,-162.5639C53.0686,-139.4796 68.416,-100.6419 74.0554,-81.4742"/>
<polygon fill="#000000" stroke="#000000" points="76.221,-71.5 78.4966,-82.2272 75.1601,-76.3862 74.0991,-81.2723 74.0991,-81.2723 74.0991,-81.2723 75.1601,-76.3862 69.7016,-80.3175 76.221,-71.5 76.221,-71.5"/>
</g>
<!-- A8 -->
<g id="node9" class="node">
<title>A8</title>
<ellipse fill="none" stroke="#000000" cx="88.221" cy="-15" rx="11" ry="11"/>
<ellipse fill="none" stroke="#000000" cx="88.221" cy="-15" rx="15" ry="15"/>
</g>
<!-- A5&#45;&gt;A8 -->
<g id="edge10" class="edge">
<title>A5&#45;&gt;A8</title>
<path fill="none" stroke="#000000" d="M88.221,-67.1582C88.221,-62.3718 88.221,-50.9971 88.221,-40.0875"/>
<polygon fill="#000000" stroke="#000000" points="88.221,-30.0005 92.7211,-40.0005 88.221,-35.0005 88.2211,-40.0005 88.2211,-40.0005 88.2211,-40.0005 88.221,-35.0005 83.7211,-40.0006 88.221,-30.0005 88.221,-30.0005"/>
</g>
<!-- A6&#45;&gt;A5 -->
<g id="edge7" class="edge">
<title>A6&#45;&gt;A5:n</title>
<path fill="none" stroke="#000000" d="M87.221,-216.8541C87.221,-188.5695 87.221,-131.9694 87.221,-81.5016"/>
<polygon fill="#000000" stroke="#000000" points="87.221,-71.5 91.7211,-81.5 87.221,-76.5 87.2211,-81.5 87.2211,-81.5 87.2211,-81.5 87.221,-76.5 82.7211,-81.5 87.221,-71.5 87.221,-71.5"/>
<text text-anchor="middle" x="123.068" y="-124" font-family="Helvetica,sans-Serif" font-size="10.00" fill="#000000">[generate: false]</text>
</g>
<!-- A7 -->
<g id="node8" class="node">
<title>A7</title>
<path fill="none" stroke="#000000" d="M233.8521,-145C233.8521,-145 188.5899,-145 188.5899,-145 182.5899,-145 176.5899,-139 176.5899,-133 176.5899,-133 176.5899,-121 176.5899,-121 176.5899,-115 182.5899,-109 188.5899,-109 188.5899,-109 233.8521,-109 233.8521,-109 239.8521,-109 245.8521,-115 245.8521,-121 245.8521,-121 245.8521,-133 245.8521,-133 245.8521,-139 239.8521,-145 233.8521,-145"/>
<text text-anchor="end" x="231.7865" y="-130" font-family="Helvetica,sans-Serif" font-size="10.00" fill="#000000">Output to</text>
<text text-anchor="middle" x="211.221" y="-118" font-family="Helvetica,sans-Serif" font-size="10.00" fill="#000000">File</text>
</g>
<!-- A6&#45;&gt;A7 -->
<g id="edge8" class="edge">
<title>A6&#45;&gt;A7</title>
<path fill="none" stroke="#000000" d="M96.9511,-226.5254C115.1385,-210.6848 154.9287,-176.0288 182.3997,-152.1024"/>
<polygon fill="#000000" stroke="#000000" points="190.1422,-145.359 185.5569,-155.3202 186.3718,-148.6429 182.6014,-151.9268 182.6014,-151.9268 182.6014,-151.9268 186.3718,-148.6429 179.6458,-148.5334 190.1422,-145.359 190.1422,-145.359"/>
<text text-anchor="middle" x="201.123" y="-178" font-family="Helvetica,sans-Serif" font-size="10.00" fill="#000000">[generate: true]</text>
</g>
<!-- A7&#45;&gt;A5 -->
<g id="edge9" class="edge">
<title>A7&#45;&gt;A5:n</title>
<path fill="none" stroke="#000000" d="M176.4045,-113.201C151.4813,-102.9144 120.0644,-89.0024 106.7068,-79.1663"/>
<polygon fill="#000000" stroke="#000000" points="100.221,-71.5 110.1153,-76.228 103.4504,-75.3172 106.6798,-79.1344 106.6798,-79.1344 106.6798,-79.1344 103.4504,-75.3172 103.2443,-82.0409 100.221,-71.5 100.221,-71.5"/>
</g>
</g>
</svg>
